<?xml version="1.0" standalone="no"?>
<svg xmlns="http://www.w3.org/2000/svg" width="50" height="71.28069196428572" viewBox="0 0 50 71.28069196428572"><g fill="#9c0e59" color="#9c0e59" transform="translate(0 0) scale(0.8928572)"><svg width="56.0" height="54.0" x="0.0" y="0.0" viewBox="0 0 56 54"><path fill="currentColor" fill-rule="evenodd" d="M53.37 20.42H37.24a12.732 12.732 0 0 0-7.839-2.688c-2.95 0-5.671 1.004-7.838 2.688H2.613v-6.127c0-.747.607-1.355 1.353-1.355h48.05c.746 0 1.354.608 1.354 1.355v6.127zm0 6.053l-14.55 14.55h-2.096a12.844 12.844 0 0 0 4.94-6.824L53.37 22.494v3.979zm0 5.318l-9.23 9.231h-3.98l13.21-13.21v3.98zm0 9.231H50.8l2.57-2.57v2.57zm-7.89 0l7.89-7.89v3.98l-3.912 3.91H45.48zm7.89 1.403c0 .748-.608 1.355-1.354 1.355H3.966a1.356 1.356 0 0 1-1.354-1.355v-.455h21.051c1.726.87 3.676 1.361 5.737 1.361 2.063 0 4.012-.49 5.739-1.36h18.23v.454zM20.34 39.563a12.867 12.867 0 0 0 1.736 1.46h-3.195l1.46-1.46zm-2.258-3.06c.45.85.991 1.642 1.614 2.364l-2.156 2.155h-3.978l4.52-4.52zm-1.328-3.992c.168 1.08.472 2.114.893 3.087l-5.426 5.424H8.243l8.512-8.511zm-.13-1.211l-9.722 9.722h-3.98l14.238-14.236a12.765 12.765 0 0 0-.536 4.514zm24.628-.768c0 6.535-5.316 11.851-11.852 11.851-6.535 0-11.852-5.316-11.852-11.851 0-6.536 5.317-11.852 11.852-11.852s11.852 5.316 11.852 11.852zm-1.047-6.854a12.898 12.898 0 0 0-1.88-2.311h4.19l-2.31 2.31zm1.605 3.715a12.663 12.663 0 0 0-1.111-2.869l3.157-3.157h3.98l-6.026 6.026zm.228 1.11l7.137-7.137h3.98L42.054 32.47a12.9 12.9 0 0 0-.015-3.965zM2.612 36.016L17.26 21.367h3.215c-.934.91-1.73 1.96-2.352 3.116L2.613 39.995v-3.98zm0-5.32l9.328-9.328h3.98L2.612 34.674v-3.978zm0-5.319l4.009-4.01h3.98l-7.989 7.99v-3.98zm0-4.01H5.28l-2.668 2.67v-2.67zM6.6 11.992h3.645v-1.54H6.6v1.54zm7.728 0h7.835V10.18h-7.835v1.812zm8.624-3.39a.79.79 0 0 1 .79.788v1.938h28.274a2.969 2.969 0 0 1 2.965 2.966v28.132a2.97 2.97 0 0 1-2.965 2.967H3.966A2.97 2.97 0 0 1 1 42.425V14.293a2.97 2.97 0 0 1 2.966-2.966h1.056V9.662a.79.79 0 0 1 .79-.79h5.222a.79.79 0 0 1 .79.79v1.665h.925V9.389c0-.435.352-.789.79-.789zM33.51 28.15a.632.632 0 0 1-.887-.114 4.022 4.022 0 0 0-1.509-1.204 4.08 4.08 0 0 0-5.411 1.986 4.087 4.087 0 0 0 .163 3.737.632.632 0 0 1-1.097.627 5.369 5.369 0 0 1-.638-1.804 5.303 5.303 0 0 1 .425-3.09 5.346 5.346 0 0 1 7.09-2.601 5.32 5.32 0 0 1 1.977 1.576.633.633 0 0 1-.113.888m-4.11-6.453c-4.87 0-8.831 3.961-8.831 8.833 0 4.869 3.962 8.831 8.831 8.831 4.87 0 8.833-3.962 8.833-8.831 0-4.871-3.962-8.833-8.833-8.833"></path></svg></g><path fill="#0b0cac" fill-rule="nonzero" d="M0 1.82L0 1.82Q0 1.05 0.50 0.53Q1.00 0 1.74 0L1.74 0Q2.34 0 2.83 0.38Q3.32 0.76 3.50 1.35L3.50 1.35L5.66 7.56L4.94 8.07L0.59 3.38Q0 2.77 0 1.82Z" transform="translate(22.168 63.215) scale(1)"></path></svg>